<?xml version="1.0" encoding="utf-8"?>
<!-- Generator: Adobe Illustrator 18.1.1, SVG Export Plug-In . SVG Version: 6.00 Build 0)  -->
<svg version="1.1" id="Calque_1" xmlns="http://www.w3.org/2000/svg" xmlns:xlink="http://www.w3.org/1999/xlink" x="0px" y="0px"
	 viewBox="0 0 532.757 187.379" enable-background="new 0 0 532.757 187.379" xml:space="preserve">
<g>
	<path fill="#FFFFFF" d="M76.108,177.015c10.917,0,18.312-0.217,26.541-2.67c8.225-2.451,15.03-5.818,20.414-10.088
		c5.376-4.271,9.413-9.378,12.106-15.311c2.686-5.932,4.028-12.462,4.028-19.581c0-6.802-1.502-12.819-4.502-18.042
		c-3.012-5.22-6.93-9.612-11.755-13.17c-4.827-3.561-10.204-6.327-16.137-8.305c-5.935-1.98-11.752-3.207-17.451-3.68v-0.477
		c5.542-0.633,10.842-1.977,15.905-4.035c5.063-2.057,9.535-4.75,13.412-8.07c3.875-3.322,6.965-7.199,9.256-11.629
		c2.294-4.43,3.442-9.26,3.442-14.479c0-3.799-0.793-8.029-2.373-12.698c-1.585-4.666-4.511-9.021-8.782-13.056
		c-4.275-4.033-10.127-7.436-17.564-10.206c-7.44-2.765-16.932-3.442-28.481-3.442c-2.217,0-70.492,0.002-70.492,0.002v3.324h26.344
		V173.75H3.675v3.266C3.675,177.015,74.83,177.015,76.108,177.015z M103.835,98.985c5.376,7.28,8.073,17.249,8.073,29.908
		c0,8.86-0.794,16.219-2.373,22.069c-1.585,5.857-4.076,10.563-7.481,14.125c-3.403,3.559-7.751,6.051-13.052,7.479
		c-5.305,1.422-10.129,1.178-17.564,1.178c-4.272,0-9.993,0.005-11.977,0.005V88.066h20.406
		C90.461,88.066,98.455,91.707,103.835,98.985z M69.895,11.39c4.113,0,8.269-0.304,12.463,0.486
		c4.188,0.795,7.987,2.455,11.392,4.985c3.399,2.532,6.17,6.286,8.305,11.276c2.141,4.982,3.204,11.59,3.204,19.814
		c0,7.283-0.71,13.293-2.134,18.039c-1.425,4.748-3.443,8.506-6.055,11.275c-2.607,2.772-5.735,4.707-9.373,5.813
		c-3.641,1.11-7.678,1.664-12.105,1.664h-16.13v-73.34C59.789,11.404,67.045,11.39,69.895,11.39z"/>
</g>
<path fill="#FFFFFF" d="M206.775,177.015c10.917,0,18.312-0.217,26.541-2.67c8.225-2.451,15.03-5.818,20.414-10.088
	c5.376-4.271,9.413-9.378,12.106-15.311c2.686-5.932,4.028-12.462,4.028-19.581c0-6.802-1.502-12.819-4.502-18.042
	c-3.012-5.22-6.93-9.612-11.755-13.17c-4.827-3.561-10.204-6.327-16.137-8.305c-5.935-1.98-11.752-3.207-17.451-3.68v-0.477
	c5.542-0.633,10.842-1.977,15.905-4.035c5.063-2.057,9.535-4.75,13.412-8.07c3.875-3.322,6.965-7.199,9.256-11.629
	c2.294-4.43,3.442-9.26,3.442-14.479c0-3.799-0.793-8.029-2.373-12.698c-1.585-4.666-4.511-9.021-8.782-13.056
	c-4.275-4.033-10.127-7.436-17.564-10.206c-7.44-2.765-16.932-3.442-28.481-3.442c-2.217,0-70.492,0.002-70.492,0.002v3.324h26.344
	V173.75h-26.344v3.266C134.342,177.015,205.496,177.015,206.775,177.015z M234.502,98.985c5.376,7.28,8.073,17.249,8.073,29.908
	c0,8.86-0.794,16.219-2.373,22.069c-1.585,5.857-4.076,10.563-7.481,14.125c-3.403,3.559-7.751,6.051-13.052,7.479
	c-5.305,1.422-10.129,1.178-17.564,1.178c-4.271,0-9.993,0.005-11.977,0.005V88.066h20.406
	C221.128,88.066,229.122,91.707,234.502,98.985z M200.562,11.39c4.113,0,8.269-0.304,12.463,0.486
	c4.188,0.795,7.987,2.455,11.392,4.985c3.399,2.532,6.17,6.286,8.305,11.276c2.141,4.982,3.204,11.59,3.204,19.814
	c0,7.283-0.71,13.293-2.134,18.039c-1.425,4.748-3.443,8.506-6.055,11.275c-2.607,2.772-5.735,4.707-9.373,5.813
	c-3.641,1.11-7.678,1.664-12.105,1.664h-16.13v-73.34C190.455,11.404,197.712,11.39,200.562,11.39z"/>
<path fill="#FFFFFF" d="M339.565,29.125c-0.853-0.369-1.728-0.704-2.648-0.959c-10.787-2.989-21.953,3.337-24.948,14.124
	c-2.994,10.788,3.331,21.959,14.118,24.951c10.016,2.775,20.357-2.48,24.178-11.885c0.019-0.028,0.031-0.049,0.031-0.049
	s4.036-8.475,0.735-18.748l0.019,0.004c-0.021-0.056-0.046-0.11-0.067-0.171c-0.058-0.17-0.098-0.333-0.157-0.505l0.004-0.006
	l-0.011-0.022c-0.669-1.895-1.633-3.84-2.876-5.8c-8.053-13.345-23.286-18.943-34.444-21.28c-1.29-0.331-2.571-0.576-3.86-0.714
	c-0.319-0.051-0.62-0.094-0.927-0.14c-1.904-0.305-3.892-0.539-5.953-0.683c-0.033,0-0.572-0.038-0.81-0.052
	c-1.265-0.08-1.992-0.09-1.992-0.09l0.014,0.008c-8.855-0.244-18.897,1.266-29.341,6.217
	C270.628,13.328,311.945-1.519,339.565,29.125z"/>
<path fill="#FFFFFF" d="M338.494,171.82c1.268,0.922,2.391,2.806,3.38,3.934h3.165v-45.85h-2.902
	c-0.168,1.115-0.294,2.063-0.407,2.945c-0.328,2.098-0.85,5.006-1.596,7.785c-2.908,9.834-10.028,23.913-27.391,31.137
	c-5.8,2.213-13.263,3.617-23.092,2.994c-12.042-1.176-14.606-3.408-20.583-6.704c0,0,7.128,6.841,20.301,9.414
	c7.224,1.623,17.842,2.015,31.319-2.839c0.84-0.293,1.685-0.589,2.543-0.922l0.009-0.027c0.275-0.11,0.534-0.186,0.814-0.306
	c0.045-0.017,0.082-0.031,0.125-0.051c1.81-0.623,3.302-1.201,4.262-1.64c3.572-1.639,6.864-1.058,7.927-0.799
	C337.204,171.117,337.93,171.419,338.494,171.82z"/>
<g>
	<path fill="#FFFFFF" d="M360.868,173.635h20.307V11.527h-20.307V8.209h64.313v3.318h-20.307v77.499h71.921V11.527h-20.307V8.209
		h64.313v3.318h-20.307v162.108h20.307v3.318h-64.313v-3.318h20.307V92.344h-71.921v81.291h20.307v3.318h-64.313V173.635z"/>
</g>
<rect x="2156.578" y="6.078" fill="none" width="236.667" height="236.667"/>
<text transform="matrix(1 0 0 1 2156.5779 176.9533)" fill="#CB1517" font-family="'DidotLT-Roman'" font-size="237">H</text>
</svg>
