<?xml version="1.0" encoding="utf-8"?>
<!-- Generator: Adobe Illustrator 18.1.1, SVG Export Plug-In . SVG Version: 6.00 Build 0)  -->
<svg version="1.1" id="Calque_1" xmlns="http://www.w3.org/2000/svg" xmlns:xlink="http://www.w3.org/1999/xlink" x="0px" y="0px"
	 viewBox="0 0 150 150" enable-background="new 0 0 150 150" xml:space="preserve">
<g>
	<g>
		<path fill="#CB1517" d="M80.957,35.568h-4.184l-1.297-3.99c-0.134-0.412-0.82-0.408-0.956,0l-1.292,3.99h-4.19
			c-0.22,0-0.412,0.136-0.478,0.344c-0.07,0.208,0.006,0.436,0.178,0.568l3.389,2.459l-1.289,3.982
			c-0.068,0.208,0.004,0.436,0.184,0.564c0.084,0.064,0.188,0.096,0.29,0.096c0.106,0,0.214-0.032,0.298-0.096l3.386-2.463
			l3.392,2.463c0.174,0.132,0.414,0.132,0.588,0c0.182-0.128,0.252-0.356,0.182-0.564l-1.293-3.982l3.389-2.459
			c0.178-0.132,0.254-0.36,0.184-0.568C81.369,35.704,81.177,35.568,80.957,35.568z"/>
		<path fill="#CB1517" d="M80.957,110.77h-4.184l-1.297-3.982c-0.134-0.416-0.82-0.412-0.956,0l-1.292,3.982h-4.19
			c-0.22,0-0.412,0.136-0.478,0.352c-0.07,0.204,0.006,0.432,0.178,0.56l3.389,2.459l-1.289,3.986
			c-0.068,0.204,0.004,0.428,0.184,0.56c0.084,0.064,0.188,0.1,0.29,0.1c0.106,0,0.214-0.036,0.298-0.1l3.386-2.463l3.392,2.463
			c0.174,0.128,0.414,0.128,0.588,0c0.182-0.132,0.252-0.356,0.182-0.56l-1.293-3.986l3.389-2.459
			c0.178-0.128,0.254-0.356,0.184-0.56C81.369,110.906,81.177,110.77,80.957,110.77z"/>
		<path fill="#CB1517" d="M40.779,81.087c0.088,0.064,0.194,0.092,0.296,0.092c0.012,0,0.02,0,0.026,0
			c0.278,0,0.504-0.224,0.504-0.5c0-0.112-0.03-0.216-0.094-0.292l-1.247-3.846l3.386-2.467c0.178-0.124,0.252-0.356,0.184-0.56
			c-0.068-0.208-0.264-0.348-0.48-0.348h-4.186l-1.292-3.982c-0.068-0.208-0.26-0.348-0.478-0.348c-0.22,0-0.414,0.14-0.478,0.348
			l-1.299,3.982h-4.186c-0.214,0-0.408,0.14-0.48,0.348c-0.064,0.204,0.012,0.436,0.182,0.56l3.392,2.467l-1.297,3.978
			c-0.07,0.208,0.006,0.44,0.182,0.568c0.088,0.064,0.192,0.092,0.298,0.092c0.102,0,0.204-0.028,0.294-0.092l3.392-2.463
			L40.779,81.087z"/>
		<path fill="#CB1517" d="M62.154,40.605h-4.182l-1.295-3.99c-0.136-0.416-0.824-0.416-0.956,0l-1.295,3.99h-4.194
			c-0.216,0-0.408,0.14-0.476,0.344c-0.068,0.208,0.004,0.436,0.184,0.564l3.39,2.459l-1.293,3.982
			c-0.07,0.204,0.006,0.436,0.184,0.56c0.084,0.068,0.19,0.1,0.294,0.1s0.208-0.032,0.292-0.1l3.394-2.455l3.386,2.455
			c0.174,0.136,0.416,0.136,0.594,0c0.174-0.124,0.246-0.356,0.182-0.56l-1.299-3.982l3.389-2.459
			c0.176-0.128,0.254-0.356,0.184-0.564C62.572,40.745,62.378,40.605,62.154,40.605z"/>
		<path fill="#CB1517" d="M48.396,54.363h-4.19l-1.297-3.982c-0.134-0.416-0.821-0.408-0.958,0l-1.289,3.982h-4.184
			c-0.222,0-0.412,0.14-0.48,0.348c-0.072,0.208,0,0.436,0.18,0.564l3.386,2.463l-1.291,3.982c-0.072,0.204,0.004,0.436,0.18,0.564
			c0.174,0.128,0.418,0.128,0.594,0l3.384-2.463l3.391,2.463c0.088,0.064,0.192,0.092,0.3,0.092c0.1,0,0.204-0.028,0.292-0.092
			c0.176-0.128,0.252-0.36,0.18-0.564l-1.291-3.982l3.388-2.463c0.178-0.128,0.252-0.356,0.184-0.564
			C48.808,54.503,48.614,54.363,48.396,54.363z"/>
		<path fill="#CB1517" d="M48.396,91.97h-4.19l-1.297-3.986c-0.134-0.416-0.821-0.412-0.958,0l-1.289,3.986h-4.184
			c-0.222,0-0.412,0.14-0.48,0.348c-0.072,0.204,0,0.432,0.182,0.56l3.384,2.463l-1.291,3.982c-0.072,0.208,0.004,0.436,0.18,0.564
			c0.174,0.128,0.418,0.128,0.594,0l3.384-2.463l3.391,2.463c0.088,0.064,0.192,0.096,0.3,0.096c0.1,0,0.204-0.032,0.292-0.096
			c0.176-0.128,0.252-0.356,0.18-0.564l-1.291-3.982l3.388-2.463c0.178-0.128,0.252-0.356,0.184-0.56
			C48.808,92.11,48.614,91.97,48.396,91.97z"/>
		<path fill="#CB1517" d="M62.154,105.732h-4.182l-1.295-3.982c-0.136-0.42-0.824-0.42-0.956,0l-1.295,3.982h-4.194
			c-0.216,0-0.408,0.14-0.476,0.348c-0.068,0.208,0.004,0.436,0.184,0.564l3.39,2.459l-1.293,3.986
			c-0.07,0.204,0.006,0.436,0.184,0.56c0.084,0.064,0.19,0.096,0.294,0.096s0.208-0.032,0.292-0.096l3.394-2.459l3.386,2.459
			c0.174,0.132,0.416,0.132,0.594,0c0.174-0.124,0.246-0.356,0.182-0.56l-1.299-3.986l3.389-2.459
			c0.176-0.128,0.254-0.356,0.184-0.564C62.572,105.872,62.378,105.732,62.154,105.732z"/>
		<path fill="#CB1517" d="M119.04,73.515c-0.064-0.208-0.26-0.348-0.476-0.348h-4.194l-1.289-3.982
			c-0.134-0.416-0.826-0.416-0.958,0l-1.291,3.982h-4.192c-0.214,0-0.41,0.14-0.476,0.348c-0.07,0.204,0.004,0.436,0.18,0.56
			l3.389,2.467l-1.294,3.978c-0.068,0.208,0.01,0.44,0.184,0.568c0.174,0.128,0.414,0.128,0.592,0l3.389-2.463l3.383,2.463
			c0.09,0.064,0.196,0.092,0.3,0.092c0.102,0,0.21-0.028,0.296-0.092c0.176-0.128,0.248-0.36,0.18-0.568l-1.289-3.978l3.389-2.467
			C119.036,73.951,119.112,73.719,119.04,73.515z"/>
		<path fill="#CB1517" d="M99.761,40.605h-4.188l-1.297-3.99c-0.068-0.208-0.26-0.348-0.472-0.348c-0.222,0-0.416,0.14-0.488,0.348
			l-1.287,3.99h-4.186c-0.218,0-0.412,0.14-0.478,0.344c-0.07,0.208,0.006,0.436,0.184,0.564l3.384,2.459l-1.295,3.982
			c-0.068,0.204,0.006,0.436,0.184,0.56c0.174,0.136,0.418,0.136,0.592,0l3.39-2.455l3.386,2.455c0.088,0.068,0.188,0.1,0.3,0.1
			c0.104,0,0.204-0.032,0.292-0.1c0.174-0.124,0.25-0.356,0.182-0.56l-1.293-3.982l3.386-2.459c0.176-0.128,0.248-0.356,0.184-0.564
			C100.175,40.745,99.981,40.605,99.761,40.605z"/>
		<path fill="#CB1517" d="M104.695,57.738l-1.289,3.982c-0.07,0.204,0.002,0.436,0.182,0.564c0.174,0.128,0.416,0.128,0.588,0
			l3.391-2.463l3.39,2.463c0.084,0.064,0.188,0.092,0.292,0.092c0.008,0,0.02,0,0.026,0c0.278,0,0.502-0.224,0.502-0.5
			c0-0.112-0.036-0.216-0.096-0.296l-1.247-3.842l3.386-2.463c0.18-0.128,0.254-0.356,0.184-0.564
			c-0.064-0.208-0.26-0.348-0.476-0.348h-4.19l-1.291-3.982c-0.068-0.204-0.262-0.348-0.48-0.348c-0.216,0-0.412,0.14-0.476,0.348
			l-1.299,3.982h-4.184c-0.222,0-0.412,0.14-0.48,0.348c-0.068,0.208,0.008,0.436,0.18,0.564L104.695,57.738z"/>
		<path fill="#CB1517" d="M113.527,91.97h-4.19l-1.291-3.986c-0.068-0.204-0.262-0.348-0.48-0.348c-0.216,0-0.412,0.14-0.476,0.348
			l-1.299,3.986h-4.184c-0.222,0-0.412,0.14-0.48,0.348c-0.068,0.204,0.008,0.432,0.18,0.56l3.388,2.463l-1.289,3.982
			c-0.07,0.208,0.002,0.436,0.182,0.564c0.174,0.128,0.416,0.128,0.588,0l3.391-2.463l3.39,2.463
			c0.084,0.064,0.188,0.096,0.292,0.096c0.102,0,0.208-0.032,0.296-0.096c0.176-0.128,0.252-0.356,0.184-0.564l-1.295-3.982
			l3.386-2.463c0.18-0.128,0.254-0.356,0.184-0.56C113.939,92.11,113.743,91.97,113.527,91.97z"/>
		<path fill="#CB1517" d="M99.761,105.732h-4.188l-1.297-3.982c-0.068-0.212-0.26-0.348-0.472-0.348
			c-0.222,0-0.416,0.14-0.488,0.348l-1.287,3.982h-4.186c-0.218,0-0.412,0.14-0.478,0.348c-0.07,0.208,0.006,0.436,0.184,0.564
			l3.384,2.459l-1.295,3.986c-0.068,0.204,0.006,0.436,0.184,0.56c0.174,0.132,0.416,0.132,0.592,0l3.39-2.459l3.386,2.459
			c0.086,0.064,0.188,0.096,0.3,0.096c0.104,0,0.204-0.032,0.292-0.096c0.174-0.124,0.25-0.356,0.182-0.56l-1.293-3.986l3.386-2.459
			c0.176-0.128,0.248-0.356,0.184-0.564C100.175,105.872,99.981,105.732,99.761,105.732z"/>
	</g>
</g>
</svg>
