<?xml version="1.0" encoding="utf-8"?>
<!-- Generator: Adobe Illustrator 18.1.1, SVG Export Plug-In . SVG Version: 6.00 Build 0)  -->
<svg version="1.1" id="Calque_1" xmlns="http://www.w3.org/2000/svg" xmlns:xlink="http://www.w3.org/1999/xlink" x="0px" y="0px"
	 viewBox="0 0 150 150" enable-background="new 0 0 150 150" xml:space="preserve">
<g>
	<path fill="#CB1517" d="M77.467,76.265L77.467,76.265l52.614-15.037c0.462-0.136,0.81-0.484,0.946-0.94
		c0.208-0.732-0.222-1.491-0.946-1.691L77.467,43.564c-0.244-0.076-0.512-0.076-0.754,0L24.107,58.597
		c-0.464,0.124-0.816,0.484-0.948,0.931c-0.208,0.732,0.208,1.492,0.948,1.699l11.841,3.386v23.102
		c-0.202,0.108-0.398,0.256-0.574,0.428c-1.066,1.076-1.066,2.815,0,3.882c0.032,0.032,0.076,0.072,0.108,0.1
		c-1.523,1.171-2.281,3.442-2.281,3.442l-1.369,8.232c0,0,2.739,2.747,5.481,2.747c2.739,0,5.486-2.747,5.486-2.747l-1.375-8.232
		c0,0-0.751-2.271-2.267-3.442c0.026-0.028,0.064-0.068,0.096-0.1c1.076-1.067,1.076-2.807,0-3.882
		c-0.172-0.172-0.36-0.32-0.568-0.428V65.394l38.029,10.871C76.955,76.33,77.223,76.33,77.467,76.265L77.467,76.265z M105.898,88.28
		V71.104l-28.431,8.128c-0.244,0.068-0.512,0.068-0.754,0l-28.417-8.128V88.28c0,0,2.921,11.663,28.983,11.663
		C103.347,99.943,105.898,88.28,105.898,88.28z"/>
</g>
</svg>
