<?xml version="1.0" encoding="utf-8"?>
<!-- Generator: Adobe Illustrator 18.1.1, SVG Export Plug-In . SVG Version: 6.00 Build 0)  -->
<svg version="1.1" id="Calque_1" xmlns="http://www.w3.org/2000/svg" xmlns:xlink="http://www.w3.org/1999/xlink" x="0px" y="0px"
	 viewBox="0 0 150 150" enable-background="new 0 0 150 150" xml:space="preserve">
<path fill="#CB1517" d="M116.387,47.966h-15.915h-1.987h-4.384v-7.96l0,0c0-4.134-3.277-6.365-6.363-6.365H63.857
	c-5.837,0-7.958,3.806-7.958,6.365v7.96h-6.367l0,0H33.613c-3.516,0-6.367,3.027-6.367,6.545v7.784v39.97v7.784
	c0,3.514,2.851,6.365,6.367,6.365h15.919h0.944h48.01l0,0h17.902c3.516,0,6.367-2.851,6.367-6.365v-7.784v-39.97v-7.784
	C122.755,50.993,119.904,47.966,116.387,47.966z M62.262,40.298c0.128-0.08,0.556-0.292,1.593-0.292h23.793
	c0.022,0,0.056,0.004,0.09,0.012v7.948H62.262V40.298z M92.512,87.764L92.512,87.764H79.778v12.734h-9.552V87.764H57.488v-9.552
	h12.738V65.478h9.552v12.734h12.734V87.764z"/>
</svg>
