<?xml version="1.0" encoding="utf-8"?>
<!-- Generator: Adobe Illustrator 18.1.1, SVG Export Plug-In . SVG Version: 6.00 Build 0)  -->
<svg version="1.1" id="Calque_1" xmlns="http://www.w3.org/2000/svg" xmlns:xlink="http://www.w3.org/1999/xlink" x="0px" y="0px"
	 viewBox="0 0 150 150" enable-background="new 0 0 150 150" xml:space="preserve">
<g>
	<path fill="#CB1517" d="M102.732,64.269L102.732,64.269c0-14.203-11.521-25.724-25.73-25.724
		c-14.204,0-25.727,11.521-25.727,25.724c0,0-1.515,17.781,25.727,50.231C104.249,82.05,102.732,64.269,102.732,64.269z"/>
	<path fill="#FFFFFF" d="M91.856,62.988c0,8.2-6.647,14.845-14.854,14.845c-8.199,0-14.849-6.644-14.849-14.845
		c0-8.206,6.65-14.851,14.849-14.851C85.209,48.138,91.856,54.782,91.856,62.988z"/>
	<path fill="#CB1517" d="M84.612,62.988c0,4.199-3.406,7.607-7.61,7.607c-4.197,0-7.601-3.408-7.601-7.607
		c0-4.208,3.404-7.601,7.601-7.601C81.207,55.388,84.612,58.781,84.612,62.988z"/>
</g>
</svg>
