<?xml version="1.0" encoding="utf-8"?>
<!-- Generator: Adobe Illustrator 18.1.1, SVG Export Plug-In . SVG Version: 6.00 Build 0)  -->
<svg version="1.1" id="Calque_1" xmlns="http://www.w3.org/2000/svg" xmlns:xlink="http://www.w3.org/1999/xlink" x="0px" y="0px"
	 viewBox="0 0 150 150" enable-background="new 0 0 150 150" xml:space="preserve">
<g>
	<path fill="#CB1517" d="M-544.825,47.966h-15.915h-1.987h-4.384v-7.96c0-4.134-3.277-6.365-6.363-6.365h-23.881
		c-5.837,0-7.958,3.806-7.958,6.365v7.96h-6.367H-627.6c-3.516,0-6.367,3.027-6.367,6.545v7.784v39.97v7.784
		c0,3.514,2.851,6.365,6.367,6.365h15.919h0.944h48.01h17.902c3.516,0,6.367-2.851,6.367-6.365v-7.784v-39.97v-7.784
		C-538.458,50.993-541.308,47.966-544.825,47.966z M-598.951,40.298c0.128-0.08,0.556-0.292,1.593-0.292h23.793l0.09,0.012v7.948
		h-25.477V40.298z M-568.7,87.764L-568.7,87.764h-12.734v12.734h-9.552V87.764h-12.738v-9.552h12.738V65.478h9.552v12.734h12.734
		V87.764z"/>
	<polygon fill="#CB1517" points="120.064,111.168 34.979,111.168 34.979,39.221 34.569,39.221 34.569,111.577 120.064,111.577 
		120.064,111.168 	"/>
	<polyline fill="#CB1517" points="34.798,96.734 29.936,96.734 29.936,97.144 34.798,97.144 	"/>
	<polyline fill="#CB1517" points="34.798,111.166 29.936,111.166 29.936,111.575 34.798,111.575 	"/>
	<polyline fill="#CB1517" points="34.798,82.301 29.936,82.301 29.936,82.71 34.798,82.71 	"/>
	<polyline fill="#CB1517" points="34.798,67.871 29.936,67.871 29.936,68.281 34.798,68.281 	"/>
	<polyline fill="#CB1517" points="119.776,53.416 118.752,53.416 118.752,53.825 119.776,53.825 	"/>
	<path fill="#CB1517" d="M39.871,53.416h-2.023v0.409h2.023V53.416z M43.916,53.416h-2.023v0.409h2.023V53.416z M47.961,53.416
		h-2.023v0.409h2.023V53.416z M52.007,53.416h-2.023v0.409h2.023V53.416z M56.052,53.416h-2.023v0.409h2.023V53.416z M60.097,53.416
		h-2.023v0.409h2.023V53.416z M64.142,53.416H62.12v0.409h2.023V53.416z M68.187,53.416h-2.023v0.409h2.023V53.416z M72.233,53.416
		H70.21v0.409h2.023V53.416z M76.278,53.416h-2.023v0.409h2.023V53.416z M80.323,53.416H78.3v0.409h2.023V53.416z M84.368,53.416
		h-2.023v0.409h2.023V53.416z M88.413,53.416h-2.023v0.409h2.023V53.416z M92.459,53.416h-2.023v0.409h2.023V53.416z M96.504,53.416
		h-2.023v0.409h2.023V53.416z M100.549,53.416h-2.023v0.409h2.023V53.416z M104.594,53.416h-2.023v0.409h2.023V53.416z
		 M108.639,53.416h-2.023v0.409h2.023V53.416z M112.685,53.416h-2.023v0.409h2.023V53.416z M116.73,53.416h-2.023v0.409h2.023
		V53.416z"/>
	<polyline fill="#CB1517" points="35.826,53.416 34.802,53.416 34.802,53.825 35.826,53.825 	"/>
	<polyline fill="#CB1517" points="119.824,39.038 118.801,39.038 118.801,39.448 119.824,39.448 	"/>
	<path fill="#CB1517" d="M39.919,39.038h-2.023v0.409h2.023V39.038z M43.964,39.038h-2.023v0.409h2.023V39.038z M48.009,39.038
		h-2.023v0.409h2.023V39.038z M52.054,39.038h-2.023v0.409h2.023V39.038z M56.1,39.038h-2.023v0.409H56.1V39.038z M60.145,39.038
		h-2.023v0.409h2.023V39.038z M64.19,39.038h-2.023v0.409h2.023V39.038z M68.235,39.038h-2.023v0.409h2.023V39.038z M72.281,39.038
		h-2.023v0.409h2.023V39.038z M76.326,39.038h-2.023v0.409h2.023V39.038z M80.371,39.038h-2.023v0.409h2.023V39.038z M84.416,39.038
		h-2.023v0.409h2.023V39.038z M88.461,39.038h-2.023v0.409h2.023V39.038z M92.507,39.038h-2.023v0.409h2.023V39.038z M96.552,39.038
		h-2.023v0.409h2.023V39.038z M100.597,39.038h-2.023v0.409h2.023V39.038z M104.642,39.038h-2.023v0.409h2.023V39.038z
		 M108.687,39.038h-2.023v0.409h2.023V39.038z M112.733,39.038h-2.023v0.409h2.023V39.038z M116.778,39.038h-2.023v0.409h2.023
		V39.038z"/>
	<polyline fill="#CB1517" points="35.874,39.038 34.85,39.038 34.85,39.448 35.874,39.448 	"/>
	<polyline fill="#CB1517" points="119.776,67.873 118.752,67.873 118.752,68.283 119.776,68.283 	"/>
	<path fill="#CB1517" d="M39.871,67.873h-2.023v0.409h2.023V67.873z M43.916,67.873h-2.023v0.409h2.023V67.873z M47.961,67.873
		h-2.023v0.409h2.023V67.873z M52.007,67.873h-2.023v0.409h2.023V67.873z M56.052,67.873h-2.023v0.409h2.023V67.873z M60.097,67.873
		h-2.023v0.409h2.023V67.873z M64.142,67.873H62.12v0.409h2.023V67.873z M68.187,67.873h-2.023v0.409h2.023V67.873z M72.233,67.873
		H70.21v0.409h2.023V67.873z M76.278,67.873h-2.023v0.409h2.023V67.873z M80.323,67.873H78.3v0.409h2.023V67.873z M84.368,67.873
		h-2.023v0.409h2.023V67.873z M88.413,67.873h-2.023v0.409h2.023V67.873z M92.459,67.873h-2.023v0.409h2.023V67.873z M96.504,67.873
		h-2.023v0.409h2.023V67.873z M100.549,67.873h-2.023v0.409h2.023V67.873z M104.594,67.873h-2.023v0.409h2.023V67.873z
		 M108.639,67.873h-2.023v0.409h2.023V67.873z M112.685,67.873h-2.023v0.409h2.023V67.873z M116.73,67.873h-2.023v0.409h2.023
		V67.873z"/>
	<polyline fill="#CB1517" points="35.826,67.873 34.802,67.873 34.802,68.283 35.826,68.283 	"/>
	<polyline fill="#CB1517" points="119.776,82.331 118.752,82.331 118.752,82.74 119.776,82.74 	"/>
	<path fill="#CB1517" d="M39.871,82.331h-2.023v0.409h2.023V82.331z M43.916,82.331h-2.023v0.409h2.023V82.331z M47.961,82.331
		h-2.023v0.409h2.023V82.331z M52.007,82.331h-2.023v0.409h2.023V82.331z M56.052,82.331h-2.023v0.409h2.023V82.331z M60.097,82.331
		h-2.023v0.409h2.023V82.331z M64.142,82.331H62.12v0.409h2.023V82.331z M68.187,82.331h-2.023v0.409h2.023V82.331z M72.233,82.331
		H70.21v0.409h2.023V82.331z M76.278,82.331h-2.023v0.409h2.023V82.331z M80.323,82.331H78.3v0.409h2.023V82.331z M84.368,82.331
		h-2.023v0.409h2.023V82.331z M88.413,82.331h-2.023v0.409h2.023V82.331z M92.459,82.331h-2.023v0.409h2.023V82.331z M96.504,82.331
		h-2.023v0.409h2.023V82.331z M100.549,82.331h-2.023v0.409h2.023V82.331z M104.594,82.331h-2.023v0.409h2.023V82.331z
		 M108.639,82.331h-2.023v0.409h2.023V82.331z M112.685,82.331h-2.023v0.409h2.023V82.331z M116.73,82.331h-2.023v0.409h2.023
		V82.331z"/>
	<polyline fill="#CB1517" points="35.826,82.331 34.802,82.331 34.802,82.74 35.826,82.74 	"/>
	<polyline fill="#CB1517" points="119.776,96.788 118.752,96.788 118.752,97.198 119.776,97.198 	"/>
	<path fill="#CB1517" d="M39.871,96.788h-2.023v0.409h2.023V96.788z M43.916,96.788h-2.023v0.409h2.023V96.788z M47.961,96.788
		h-2.023v0.409h2.023V96.788z M52.007,96.788h-2.023v0.409h2.023V96.788z M56.052,96.788h-2.023v0.409h2.023V96.788z M60.097,96.788
		h-2.023v0.409h2.023V96.788z M64.142,96.788H62.12v0.409h2.023V96.788z M68.187,96.788h-2.023v0.409h2.023V96.788z M72.233,96.788
		H70.21v0.409h2.023V96.788z M76.278,96.788h-2.023v0.409h2.023V96.788z M80.323,96.788H78.3v0.409h2.023V96.788z M84.368,96.788
		h-2.023v0.409h2.023V96.788z M88.413,96.788h-2.023v0.409h2.023V96.788z M92.459,96.788h-2.023v0.409h2.023V96.788z M96.504,96.788
		h-2.023v0.409h2.023V96.788z M100.549,96.788h-2.023v0.409h2.023V96.788z M104.594,96.788h-2.023v0.409h2.023V96.788z
		 M108.639,96.788h-2.023v0.409h2.023V96.788z M112.685,96.788h-2.023v0.409h2.023V96.788z M116.73,96.788h-2.023v0.409h2.023
		V96.788z"/>
	<polyline fill="#CB1517" points="35.826,96.788 34.802,96.788 34.802,97.198 35.826,97.198 	"/>
	<polyline fill="#CB1517" points="34.798,53.438 29.936,53.438 29.936,53.847 34.798,53.847 	"/>
	<polyline fill="#CB1517" points="35.038,39.008 29.936,39.008 29.936,39.418 35.038,39.418 	"/>
	<polyline fill="#CB1517" points="49.148,116.245 49.148,111.383 48.739,111.383 48.739,116.245 	"/>
	<polyline fill="#CB1517" points="34.971,116.245 34.971,111.383 34.561,111.383 34.561,116.245 	"/>
	<polyline fill="#CB1517" points="63.33,116.245 63.33,111.383 62.921,111.383 62.921,116.245 	"/>
	<polyline fill="#CB1517" points="77.512,116.245 77.512,111.383 77.102,111.383 77.102,116.245 	"/>
	<polyline fill="#CB1517" points="91.689,116.245 91.689,111.383 91.28,111.383 91.28,116.245 	"/>
	<polyline fill="#CB1517" points="105.871,116.245 105.871,111.383 105.462,111.383 105.462,116.245 	"/>
	<polyline fill="#CB1517" points="120.053,116.245 120.053,111.383 119.643,111.383 119.643,116.245 	"/>
	
		<rect x="74.083" y="22.923" transform="matrix(0.6482 0.7615 -0.7615 0.6482 84.9166 -30.641)" fill="#CB1517" width="3.072" height="107.311"/>
	<polygon fill="#CB1517" points="115.184,49.712 115.774,42.373 108.433,41.788 111.796,38.921 119.136,39.509 118.549,46.848 	"/>
</g>
</svg>
